# xmcd
#
# Track frame offsets:
# 150
# 49019
# 79715
# 111975
# 154501
# 194226
# 218678
# 249561
# 300276
#
# Disc length: 4509 seconds
#
#
# Revision: 0
# Processed by: cddbd v1.5.2PL0 Copyright (c) Steve Scherf et al.
# Submitted via: FreeRIP 2.96 
#
DISCID=71119b09
DTITLE=Donna Leon - Lasset die Kinder zu mir kommen CD5v8
DYEAR=2008
DGENRE=Hörbuch
TTITLE0=31 Lasset die Kinder zu mir kommen
TTITLE1=32 Lasset die Kinder zu mir kommen
TTITLE2=33 Lasset die Kinder zu mir kommen
TTITLE3=34 Lasset die Kinder zu mir kommen
TTITLE4=35 Lasset die Kinder zu mir kommen
TTITLE5=36 Lasset die Kinder zu mir kommen
TTITLE6=37 Lasset die Kinder zu mir kommen
TTITLE7=38 Lasset die Kinder zu mir kommen
TTITLE8=39 Lasset die Kinder zu mir kommen
EXTD=ungekuerzte Lesung,\ngelesen von Jochen Striebeck
EXTT0=
EXTT1=
EXTT2=
EXTT3=
EXTT4=
EXTT5=
EXTT6=
EXTT7=
EXTT8=
PLAYORDER=
